<?xml version="1.0" encoding="UTF-8"?>
<svg width="40px" height="40px" viewBox="0 0 40 40" version="1.1" xmlns="http://www.w3.org/2000/svg" xmlns:xlink="http://www.w3.org/1999/xlink">
    <title>关注领域</title>
    <defs>
        <linearGradient x1="50%" y1="0%" x2="50%" y2="100%" id="linearGradient-1">
            <stop stop-color="#4A91E3" offset="0%"></stop>
            <stop stop-color="#2458C2" offset="100%"></stop>
        </linearGradient>
    </defs>
    <g id="页面-1" stroke="none" stroke-width="1" fill="none" fill-rule="evenodd">
        <g id="推荐" transform="translate(-1280, -393)">
            <g id="关注领域" transform="translate(1280, 393)">
                <circle id="椭圆形" fill="url(#linearGradient-1)" cx="20" cy="20" r="20"></circle>
                <g id="编组" transform="translate(10, 9)" fill="#FFFFFF" fill-rule="nonzero">
                    <path d="M18.9416486,4.84936794 L11.078415,0.286585801 C10.4138258,-0.0955286003 9.596206,-0.0955286003 8.93161679,0.286585801 L1.07005517,4.84936794 C0.41218382,5.23388857 0.00556720896,5.9365729 0,6.69855704 L0,15.794026 C0.00177313308,16.5618589 0.408534695,17.2717849 1.07005517,17.6616067 L5.6595887,20.3183531 L8.93161679,22.2110132 C9.59215942,22.5992685 10.4111845,22.5992685 11.0717271,22.2110132 L18.9299448,17.6565908 C19.5914007,17.2699494 19.9985646,16.561866 20,15.795698 L20,6.67347763 C19.9904317,5.92221334 19.5891125,5.23052417 18.9416486,4.84936794 L18.9416486,4.84936794 Z M18.5303461,15.8174335 C18.5405522,16.066215 18.4117069,16.3000693 18.1959539,16.4243554 L10.3377362,20.9720899 C10.1317815,21.0951164 9.8749063,21.0951164 9.66895168,20.9720899 L6.40361144,19.0794298 L1.81407791,16.3758685 C1.59832491,16.2515824 1.46947956,16.0177281 1.47968567,15.7689466 L1.47968567,6.67347763 C1.48894243,6.44605233 1.61553025,6.23971418 1.81407791,6.12841827 L9.67563953,1.57232397 C9.88159414,1.44929746 10.1384694,1.44929746 10.344424,1.57232397 L18.2026417,6.12005846 C18.4073601,6.24057604 18.5341819,6.45934353 18.5370339,6.69688508 L18.5370339,15.8174335 L18.5303461,15.8174335 Z M15.6512289,7.75189261 L10.3544558,4.90955855 C10.1418857,4.80061929 9.8898816,4.80061929 9.67731149,4.90955855 L4.36716268,7.75189261 C4.16141919,7.85871085 4.01823077,8.05644724 3.98093964,8.28524823 C3.97796084,8.32755221 3.97796084,8.37001331 3.98093964,8.41231728 L3.98093964,14.0969854 C3.98677004,14.3713645 4.13930125,14.6215412 4.38053837,14.7523942 L9.67731149,17.5846965 C9.89339624,17.7055932 10.1567626,17.7055932 10.3728473,17.5846965 L15.6696205,14.7423624 C15.9065672,14.608018 16.0557008,14.3592504 16.0625313,14.0869536 L16.0625313,8.40228552 C16.0618383,8.11982497 15.9029988,7.86154935 15.6512289,7.73350103 L15.6512289,7.75189261 Z M14.5627821,13.6589316 L10.7155994,15.7171158 L10.7155994,11.7044089 L14.5611102,9.64288073 L14.5627821,13.6589316 Z" id="形状"></path>
                </g>
            </g>
        </g>
    </g>
</svg>