<?xml version="1.0" encoding="UTF-8"?>
<svg width="14px" height="14px" viewBox="0 0 14 14" version="1.1" xmlns="http://www.w3.org/2000/svg" xmlns:xlink="http://www.w3.org/1999/xlink">
    <title>icon/chat</title>
    <g id="icon/chat" stroke="none" stroke-width="1" fill="none" fill-rule="evenodd">
        <rect id="矩形" x="0" y="0" width="14" height="14"></rect>
        <g id="编组" transform="translate(0.3563, 0.4529)" fill="#2458C2" fill-rule="nonzero">
            <path d="M9.08620372,0.476395954 C9.84607957,0.780919332 10.5421278,1.22520544 11.1378835,1.78586313 C11.734326,2.33513736 12.2151623,2.99791175 12.5522863,3.73549447 C13.2443577,5.26133784 13.2443577,7.01160373 12.5523688,8.53726427 C12.2258901,9.26481194 11.7602798,9.9214895 11.181454,10.4706055 C10.5771937,11.0345147 9.87165359,11.4789495 9.10201818,11.780469 C7.63757197,12.3515659 6.02351028,12.4130539 4.5593431,11.950548 L2.67426874,13.0339225 C2.5973461,13.0773958 2.51045337,13.1001543 2.42195505,13.0999737 C2.16425627,13.0987256 1.94791639,12.905564 1.91759401,12.6495876 L1.63866849,10.1815744 C0.59531239,9.09136233 0.00895405279,7.64305724 0,6.13327512 C0.00808969071,5.30390977 0.194406587,4.4859786 0.545975956,3.73568189 C0.875581092,3.00096875 1.34691135,2.3385085 1.93314073,1.78608808 C2.537401,1.2221789 3.24294114,0.777744168 4.01250403,0.476252923 C5.64404179,-0.158774811 7.454305,-0.158774811 9.08620372,0.476395954 Z M4.40053212,1.41985961 C3.73105573,1.67409287 3.11686584,2.05499995 2.59135434,2.54193982 C2.09594516,2.99536903 1.69495783,3.54216995 1.41157613,4.15059075 C1.12778093,4.77311131 0.981531693,5.4495044 0.982777324,6.13351114 C0.98932211,7.43062812 1.5098754,8.67223893 2.43044305,9.58626931 C2.50996869,9.66566387 2.56073791,9.76931769 2.57475325,9.88115507 L2.688,11.266 L2.751,11.799 L4.20058588,10.9703359 C4.32633002,10.8972243 4.47749461,10.8818888 4.61542528,10.9282794 C5.94471997,11.3774065 7.38957598,11.3450874 8.69749892,10.8369551 C9.35469424,10.5822863 9.95760407,10.2052399 10.4744966,9.72558576 C10.9699057,9.27215655 11.3708931,8.72535563 11.6497702,8.13767532 L11.6542723,8.09527628 C12.2276226,6.83720815 12.2276226,5.39240558 11.6544498,4.13472245 C11.3707729,3.52599724 10.9697979,2.97921309 10.4740962,2.5253214 C9.96690976,2.0508414 9.37517313,1.67577141 8.72961842,1.41959088 C7.33770257,0.878353778 5.7931401,0.878353778 4.40053212,1.41985961 Z M6.5491734,5.80213184 C6.96264767,5.80213184 7.29783479,6.13731897 7.29783479,6.55079324 C7.29783479,6.96426751 6.96264767,7.29945463 6.5491734,7.29945463 C6.13569913,7.29945463 5.800512,6.96426751 5.800512,6.55079324 C5.800512,6.13731897 6.13569913,5.80213184 6.5491734,5.80213184 Z M3.7600691,5.80213811 L3.87235095,5.81145839 C4.027981,5.8362595 4.17210735,5.90960568 4.28391136,6.02140968 C4.42431261,6.16181093 4.50318922,6.35223589 4.50318922,6.55079324 C4.50318922,6.85412109 4.3201446,7.1274735 4.03967153,7.24300555 C3.75920279,7.35853582 3.43673996,7.29341261 3.22308844,7.07809195 C3.00943692,6.86277128 2.94682509,6.53981143 3.06453446,6.26025023 C3.15921966,6.03537171 3.35552886,5.87432798 3.58532501,5.87318184 C3.64068496,5.85902303 3.69870431,5.85183179 3.75790293,5.85211898 L3.757,5.851 L3.75799762,5.82697207 L3.7600691,5.80213811 Z M9.34299762,5.80797207 L9.43992873,5.80896365 C9.8087939,5.85900451 10.0870644,6.1751297 10.0870644,6.55079324 C10.0870644,6.8541211 9.90401978,7.1274735 9.62354671,7.24300555 C9.34307796,7.35853582 9.02061513,7.29341261 8.80696361,7.07809194 C8.5933121,6.86277127 8.53070027,6.53981142 8.64840964,6.26025022 C8.74309484,6.03537171 8.93940405,5.87432797 9.1687816,5.87316151 C9.22456015,5.85902303 9.2825795,5.85183179 9.34177812,5.85211898 L9.341,5.851 L9.34299762,5.80797207 Z" id="形状结合"></path>
        </g>
    </g>
</svg>