<?xml version="1.0" encoding="UTF-8"?>
<svg width="12px" height="12px" viewBox="0 0 12 12" version="1.1" xmlns="http://www.w3.org/2000/svg" xmlns:xlink="http://www.w3.org/1999/xlink">
    <title>icon/dbcg</title>
    <g id="icon/dbcg" stroke="none" stroke-width="1" fill="none" fill-rule="evenodd">
        <rect id="矩形" x="0" y="0" width="12" height="12"></rect>
        <path d="M5.67700929,0 C6.06427731,0 6.37943062,0.30970817 6.37943062,0.690601413 L6.37943062,2.2892109 L11.187743,2.2892109 C11.575011,2.28921089 11.8901643,2.59891907 11.8901643,2.97981231 L11.8901643,7.57496792 C11.9633727,7.85235076 12.0002914,8.13805806 12,8.42493889 C11.999862,9.71091419 11.2533178,10.879887 10.0866807,11.4208957 C8.92004356,11.9619043 7.54546124,11.7765687 6.56376807,10.9458997 L0.702288525,10.9458997 C0.315020495,10.9458997 0,10.6361915 0,10.2552983 L0,0.690601413 C0,0.309973788 0.315020495,0 0.702288525,0 L5.67700929,0 Z M8.69732803,6.05192617 C7.38877115,6.05192617 6.32431531,7.11651482 6.32431531,8.42493889 C6.32431531,9.73336297 7.38890395,10.7979516 8.69732803,10.7979516 C9.7571356,10.7979516 10.6567768,10.0996473 10.9605086,9.13904733 C11.1069247,8.6741873 11.1069247,8.17555768 10.9605086,7.71069765 C10.6567768,6.75009764 9.7571356,6.05192617 8.69732803,6.05192617 Z M8.69732803,6.59325144 L9.35778204,7.63074726 L10.5485383,7.93846332 L9.76603374,8.88724342 L9.84160146,10.1149203 L8.69732803,9.66337317 L7.55318742,10.1149203 L7.62848953,8.88724342 L6.84598499,7.93846332 L8.03674121,7.63074726 L8.69732803,6.59325144 Z M5.44977486,0.929390139 L0.929655757,0.929390139 L0.929655757,10.0165095 L5.80184877,10.0165095 C5.02046637,8.59209783 5.39070171,6.81097525 6.67500355,5.81594964 C7.9593054,4.82092404 9.77644643,4.90735506 10.9605086,6.01978664 L10.9605086,3.21820261 L6.15206338,3.21820261 C5.76479536,3.21820262 5.44977486,2.90849444 5.44977486,2.5276012 L5.44977486,0.929390139 Z M8.69719522,8.07684922 L8.5400834,8.32360642 L8.25667121,8.3967836 L8.44260235,8.62255715 L8.42467328,8.91473467 L8.69692961,8.80742583 L8.96918594,8.91473467 L8.95178809,8.62255715 L9.13771925,8.3967836 L8.85443985,8.32360642 L8.69719522,8.07684922 Z M4.1850446,6.63406747 C4.46049816,6.63406747 4.61352791,6.75649127 4.64413386,7.00133888 L4.64987248,7.09889534 C4.64987248,7.4087806 4.49492985,7.56372322 4.1850446,7.56372322 L2.17406639,7.56372322 C1.89861283,7.56372322 1.74558308,7.44129942 1.71497713,7.19645181 L1.70923851,7.09889534 C1.70923851,6.78901009 1.86418114,6.63406747 2.17406639,6.63406747 L4.1850446,6.63406747 Z M4.1850446,4.48510177 C4.46049816,4.48510177 4.61352791,4.60752557 4.64413386,4.85237318 L4.64987248,4.94992965 C4.64987248,5.2598149 4.49492985,5.41475753 4.1850446,5.41475753 L2.17406639,5.41475753 C1.89861283,5.41475753 1.74558308,5.29233372 1.71497713,5.04748612 L1.70923851,4.94992965 C1.70923851,4.6400444 1.86418114,4.48510177 2.17406639,4.48510177 L4.1850446,4.48510177 Z" id="形状结合" fill="#2458C2" fill-rule="nonzero"></path>
    </g>
</svg>