<?xml version="1.0" encoding="UTF-8"?>
<svg width="24px" height="24px" viewBox="0 0 24 24" version="1.1" xmlns="http://www.w3.org/2000/svg" xmlns:xlink="http://www.w3.org/1999/xlink">
    <title>地址</title>
    <g id="页面-1" stroke="none" stroke-width="1" fill="none" fill-rule="evenodd">
        <g id="个人主页" transform="translate(-608, -125)" fill="#2458C2">
            <g id="地址" transform="translate(608, 125)">
                <circle id="椭圆形备份-4" fill-opacity="0.09" cx="12" cy="12" r="12"></circle>
                <g id="编组" transform="translate(6, 5.4)" fill-rule="nonzero">
                    <path d="M6,13.3333333 C5.16666667,13.3333333 0,9.31366667 0,6 C0,2.68633333 2.68633333,2.22044605e-16 6,2.22044605e-16 C9.31366667,2.22044605e-16 12,2.68633333 12,6 C12,9.31366667 6.83333333,13.3333333 6,13.3333333 Z M6,7.83333334 C7.0125,7.83333334 7.83333333,7.01250002 7.83333333,6 C7.83333333,4.98749998 7.0125,4.16666667 6,4.16666667 C4.9875,4.16666667 4.16666667,4.9875 4.16666667,6 C4.16666667,7.0125 4.9875,7.83333334 6,7.83333334 Z" id="形状"></path>
                </g>
            </g>
        </g>
    </g>
</svg>