<?xml version="1.0" encoding="UTF-8"?>
<svg width="14px" height="14px" viewBox="0 0 14 14" version="1.1" xmlns="http://www.w3.org/2000/svg" xmlns:xlink="http://www.w3.org/1999/xlink">
    <title>icon/donwload</title>
    <g id="icon/donwload" stroke="none" stroke-width="1" fill="none" fill-rule="evenodd">
        <rect id="矩形" x="0" y="0" width="14" height="14"></rect>
        <g id="编组" fill="#2458C2" fill-rule="nonzero">
            <path d="M13.453125,8.17578125 C13.7551557,8.17578125 14,8.42062553 14,8.72265625 L14,12.6328125 C14,13.3878893 13.3878893,14 12.6328125,14 L1.3671875,14 C0.612110694,14 0,13.3878893 0,12.6328125 L0,8.72265625 C0,8.42062553 0.244844277,8.17578125 0.546875,8.17578125 C0.848905723,8.17578125 1.09375,8.42062553 1.09375,8.72265625 L1.09375,12.6328125 C1.09375,12.7838279 1.21617214,12.90625 1.3671875,12.90625 L12.6328125,12.90625 C12.7838279,12.90625 12.90625,12.7838279 12.90625,12.6328125 L12.90625,8.72265625 C12.90625,8.42062553 13.1510943,8.17578125 13.453125,8.17578125 Z M7,0 C7.30203072,0 7.546875,0.244844277 7.546875,0.546875 L7.546,8.903 L10.3359375,6.125 C10.5511344,5.90980312 10.9000375,5.90980312 11.1152344,6.12500001 C11.3304313,6.34019689 11.3304313,6.68909998 11.1152344,6.90429688 L7.3828125,10.609375 C7.28184272,10.7124141 7.14424882,10.7713829 7,10.7734375 C6.85575118,10.7713829 6.71815728,10.7124141 6.6171875,10.609375 L2.8984375,6.890625 C2.75922952,6.75141702 2.70486262,6.54851697 2.75581627,6.35835534 C2.80676993,6.1681937 2.95530308,6.01966056 3.14546471,5.9687069 C3.33562635,5.91775324 3.5385264,5.97212015 3.67773437,6.11132812 L6.453,8.898 L6.453125,0.546875 C6.453125,0.244844277 6.69796928,0 7,0 Z" id="形状结合"></path>
        </g>
    </g>
</svg>