<?xml version="1.0" encoding="UTF-8"?>
<svg width="14px" height="14px" viewBox="0 0 14 14" version="1.1" xmlns="http://www.w3.org/2000/svg" xmlns:xlink="http://www.w3.org/1999/xlink">
    <title>icon/earth</title>
    <g id="icon/earth" stroke="none" stroke-width="1" fill="none" fill-rule="evenodd" fill-opacity="0.45">
        <path d="M7,0 C10.8659932,0 14,3.13400675 14,7 C14,10.8659932 10.8659932,14 7,14 C3.13400675,14 0,10.8659932 0,7 C0,3.13400675 3.13400675,0 7,0 Z M7,13.125 C8.19645412,13.125 9.31278381,12.7819466 10.2559928,12.1888359 L8.6975,10.626875 L9.695,7.13125 L10.198125,6.881875 L9.625,6.304375 L9.625,4.97875 L12.1664759,3.71010234 C11.9286023,3.33652686 11.6491152,2.98705711 11.331029,2.66897097 C11.1789247,2.51686664 11.0196442,2.37358844 10.8539832,2.23946598 L8.3825,3.0625 L6.64125,3.0625 L6.21330691,0.925051629 C5.91853817,0.962846336 5.63032464,1.02159431 5.35020762,1.09975428 L6.601875,4.865 L5.429375,6.820625 L6.88625,7.546875 L7.93625,9.6425 L6.2125,12.516875 L3.5,9.804375 L3.5,8.53125 L2.043125,7.4375 L0.890357475,7.43712013 C1.11449976,10.6158582 3.76422914,13.125 7,13.125 Z M12.5817971,4.47825851 L10.5,5.52125 L10.5,5.945625 L11.676875,7.118125 L10.43,7.74375 L9.6775,10.373125 L10.9716595,11.6629398 C12.2893722,10.5394931 13.125,8.8673322 13.125,7 C13.125,6.12193871 12.9364592,5.26331649 12.5817971,4.47825851 Z M0.890357475,6.56287987 L2.331875,6.5625 L4.375,8.09375 L4.375,9.445625 L6.0375,11.108125 L6.93875,9.6075 L6.23875,8.203125 L4.195625,7.179375 L5.648125,4.76 L4.52409555,1.3960434 C2.50098744,2.29119475 1.05346301,4.24975198 0.890357475,6.56287987 Z M7.09648076,0.875758951 L7.35875,2.1875 L8.2425,2.1875 L9.93234539,1.6225366 C9.06850242,1.15151292 8.09643097,0.891493053 7.09648076,0.875758951 Z" fill="#000000" fill-rule="nonzero"></path>
    </g>
</svg>