<?xml version="1.0" encoding="UTF-8"?>
<svg width="12px" height="12px" viewBox="0 0 12 12" version="1.1" xmlns="http://www.w3.org/2000/svg" xmlns:xlink="http://www.w3.org/1999/xlink">
    <title>icon/eye</title>
    <g id="icon/eye" stroke="none" stroke-width="1" fill="none" fill-rule="evenodd" fill-opacity="0.45">
        <path d="M6.00937012,1.5 C9.83237896,1.5 11.8063509,5.37298282 11.9062988,5.54789172 C12.0312337,5.82274857 12.0312337,6.17256637 11.9062988,6.44742321 C11.8063509,6.62233211 9.83237897,10.4953149 6.00937012,10.4953149 C2.18636126,10.4953149 0.212389378,6.62233211 0.112441434,6.44742321 C-0.0374804779,6.17256637 -0.0374804779,5.82274857 0.112441434,5.54789172 C0.212389378,5.37298282 2.18636127,1.5 6.00937012,1.5 Z M6.00937012,2.49947944 C2.76106194,2.49947944 1.01197293,5.99765747 1.01197293,5.99765747 C1.01197293,5.99765747 2.76106194,9.4958355 6.00937012,9.4958355 C9.25767828,9.4958355 11.0067673,5.99765747 11.0067673,5.99765747 C11.0067673,5.99765747 9.25767829,2.49947944 6.00937012,2.49947944 Z M6.00937012,3.9986986 C7.1087975,3.9986986 8.00832899,4.89823009 8.00832899,5.99765747 C8.00832899,7.09708485 7.1087975,7.99661634 6.00937012,7.99661634 C4.90994274,7.99661634 4.01041124,7.09708485 4.01041124,5.99765747 C4.01041124,4.89823009 4.90994274,3.9986986 6.00937012,3.9986986 Z M6.00937012,4.99817803 C5.45965643,4.99817803 5.00989068,5.44794378 5.00989068,5.99765747 C5.00989068,6.54737116 5.45965643,6.9971369 6.00937012,6.9971369 C6.55908381,6.9971369 7.00884955,6.54737116 7.00884955,5.99765747 C7.00884955,5.44794378 6.55908381,4.99817803 6.00937012,4.99817803 Z" id="形状结合" fill="#000000" fill-rule="nonzero"></path>
    </g>
</svg>