<?xml version="1.0" encoding="UTF-8"?>
<svg width="14px" height="14px" viewBox="0 0 14 14" version="1.1" xmlns="http://www.w3.org/2000/svg" xmlns:xlink="http://www.w3.org/1999/xlink">
    <title>icon/guanzhu</title>
    <g id="icon/guanzhu" stroke="none" stroke-width="1" fill="none" fill-rule="evenodd">
        <rect id="矩形" x="0" y="0" width="14" height="14"></rect>
        <path d="M13.2072963,11.4543296 L11.1391469,11.4543296 L11.1391469,13.5224791 C11.1392779,13.7860754 10.9256971,13.9998688 10.6621007,13.9999999 C10.3985043,14.000131 10.1847109,13.7865501 10.1845798,13.5229537 L10.1845798,11.4543296 L8.1164304,11.4543296 C7.852834,11.4544607 7.63904065,11.2408798 7.63890951,10.9772834 C7.6387785,10.713687 7.85235933,10.4998937 8.11595573,10.4997626 L10.1845798,10.4997626 L10.1845798,8.43161315 C10.1845798,8.16801674 10.3982669,7.95432964 10.6618634,7.95432964 C10.9254598,7.95432964 11.1391469,8.16801674 11.1391469,8.43161315 L11.1391469,10.4997626 L13.2072963,10.4997626 C13.4708927,10.4997626 13.6845798,10.7134497 13.6845798,10.9770461 C13.6845798,11.2406425 13.4708927,11.4543296 13.2072963,11.4543296 L13.2072963,11.4543296 Z M6.68457987,8.27259776 C6.5967654,8.36990568 6.50895093,8.27259776 6.36631175,8.27259776 C3.97562213,8.27259776 0.960025761,10.5650301 0.960025761,13.2803959 C0.958326794,13.5438461 0.74358393,13.7561463 0.480131549,13.7548414 C0.353528486,13.7556521 0.231791702,13.7061126 0.141735335,13.6171246 C0.0516789687,13.5281367 0.000690206931,13.4069998 0,13.2803959 C0,11.0366175 1.87448293,8.49308328 4.51722381,7.6887502 C3.25364479,6.9833864 2.54804365,5.67305211 2.54804365,4.13629888 C2.54804365,1.86570149 4.38763813,0 6.68434253,0 C8.98104693,0 10.8206415,1.86570149 10.8206415,4.13629888 C10.8211161,6.39479212 8.96443338,8.25289884 6.68457987,8.27259776 L6.68457987,8.27259776 Z M6.68457987,0.954567024 C4.9206957,0.954567024 3.50284801,2.39235097 3.50284801,4.13629888 C3.50284801,5.88024679 4.9206957,7.31803073 6.68457987,7.31803073 C8.44846403,7.31803073 9.86631172,5.88024679 9.86631172,4.13629888 C9.86631172,2.39235097 8.44870137,0.954567024 6.68457987,0.954567024 Z" id="形状" fill="#2458C2" fill-rule="nonzero"></path>
    </g>
</svg>