<?xml version="1.0" encoding="UTF-8"?>
<svg width="12px" height="12px" viewBox="0 0 12 12" version="1.1" xmlns="http://www.w3.org/2000/svg" xmlns:xlink="http://www.w3.org/1999/xlink">
    <title>icon/gwb</title>
    <g id="icon/gwb" stroke="none" stroke-width="1" fill="none" fill-rule="evenodd">
        <rect id="矩形" x="0" y="0" width="12" height="12"></rect>
        <g id="编组" transform="translate(0, 0.4)" fill="#000000" fill-opacity="0.45" fill-rule="nonzero">
            <path d="M12,6.00929953 L12,9.59952003 C12,9.91776391 11.8735781,10.2229733 11.6485457,10.4480057 C11.4235133,10.6730381 11.1183039,10.79946 10.80006,10.79946 L1.20053997,10.79946 C0.882296096,10.79946 0.577086659,10.6730381 0.352054254,10.4480057 C0.127021849,10.2229733 0.000599960627,9.91776391 0.000599960627,9.59952003 L0.000599960627,6.00929953 C1.70871455,6.76526173 3.74741263,7.19964002 6.00029998,7.19964002 C8.25258737,7.19964002 10.2906855,6.76526173 12,6.00929953 Z M9.30013499,0 C9.79716642,0 10.20009,0.402923579 10.20009,0.899955002 L10.20009,2.09869507 L10.80006,2.09869507 C11.1183039,2.09869506 11.4235133,2.22511695 11.6485457,2.45014935 C11.8735781,2.67518175 12,2.98039119 12,3.29863506 L12,5.09554522 C10.3164842,5.86770661 8.24298785,6.29968502 6.00029998,6.29968502 C3.75761211,6.29968502 1.68351581,5.86710664 0,5.09554522 L0.000599960627,3.29863506 C0.000599960627,2.98039119 0.127021849,2.67518175 0.352054254,2.45014935 C0.577086659,2.22511695 0.882296096,2.09869506 1.20053997,2.09869507 L1.80050997,2.09869507 L1.80050997,0.899955002 C1.80053222,0.436405035 2.1526603,0.0487005911 2.61406929,0.0041997947 L2.70046497,0 L9.30013499,0 Z M6.60026999,3.89980501 L5.40032997,3.89980501 C5.08288982,3.90015712 4.82066012,4.1477189 4.80205667,4.46461366 C4.78345321,4.78150841 5.01491503,5.05805258 5.33013348,5.09554522 L5.40032997,5.09974502 L6.60026999,5.09974502 C6.93162427,5.09974502 7.20023999,4.8311293 7.20023999,4.49977501 C7.20023999,4.16842073 6.93162427,3.89980501 6.60026999,3.89980501 L6.60026999,3.89980501 Z M9.00014998,1.19994 L3.00044998,1.19994 L3.00044998,2.09869507 L9.00014998,2.09869507 L9.00014998,1.19994 Z" id="形状"></path>
        </g>
    </g>
</svg>