<?xml version="1.0" encoding="UTF-8"?>
<svg width="12px" height="12px" viewBox="0 0 12 12" version="1.1" xmlns="http://www.w3.org/2000/svg" xmlns:xlink="http://www.w3.org/1999/xlink">
    <title>icon/jigou</title>
    <g id="icon/jigou" stroke="none" stroke-width="1" fill="none" fill-rule="evenodd">
        <rect id="矩形" x="0" y="0" width="12" height="12"></rect>
        <g id="编组" transform="translate(0, 0.4)" fill="#000000" fill-opacity="0.45" fill-rule="nonzero">
            <path d="M11.8634722,2.51877114 L6.40513282,0.127741967 C6.39912144,0.124736269 6.39160721,0.121730585 6.38559583,0.118724886 C6.34802466,0.0961821915 6.18722006,0.00751423164 6.01288983,0 L5.99335282,0 C5.81751975,0.00901708092 5.65821799,0.0961821915 5.61914398,0.118724886 C5.6131326,0.121730585 5.6071212,0.126239118 5.59960697,0.127741967 L0.153290361,2.51877114 C0.0571081693,2.55634231 0,2.65252451 0,2.74720385 L0,3.03575042 C0,3.13493831 0.079650879,3.21458919 0.178838754,3.21458919 L0.767954683,3.21458919 C0.849108411,3.21458919 0.919742209,3.26718883 0.940782055,3.34533686 C1.01442155,3.6263692 1.32701367,3.60983789 1.37660761,3.60683219 L10.6191151,3.60683219 C10.668709,3.61134072 10.9813012,3.62787205 11.0549407,3.34533686 C11.0759805,3.26718883 11.1466143,3.21458919 11.227768,3.21458919 L11.816884,3.21458919 C11.9160718,3.21458919 11.9957227,3.13493831 11.9957227,3.03575042 L11.9957227,2.76223231 C11.9957227,2.75321523 11.9972256,2.7426953 11.9987284,2.73367823 C12.0092484,2.64501027 11.953643,2.5653594 11.8634722,2.51877114 Z M11.4712292,10.0299992 L0.544030524,10.0299992 C0.124736284,10.0299992 0.133738018,10.4402764 0.133738018,10.4402764 L0.133738018,10.9482386 C0.133738018,11.0474264 0.213404229,11.1270773 0.312592119,11.1270773 L11.7011648,11.1270773 C11.8003527,11.1270773 11.8800035,11.0474264 11.8800035,10.9482386 L11.8800035,10.4402764 C11.8815064,10.4402764 11.8920263,10.0299992 11.4712292,10.0299992 Z M1.72827375,4.20646803 L1.72827375,8.82772179 L1.26088842,8.82772179 C0.915233661,8.82772179 0.867142573,9.15534239 0.861131176,9.21846194 C0.861131176,9.22447332 0.859628341,9.23048472 0.859628341,9.23499325 L0.859628341,9.43938041 C0.859628341,9.5385683 0.93927922,9.61821918 1.0384671,9.61821918 L10.9963296,9.61821918 C11.0955175,9.61821918 11.1751684,9.5385683 11.1751684,9.43938041 L11.1751684,9.23499325 C11.1751684,9.22898187 11.1751684,9.22297047 11.1736656,9.21846194 C11.1676542,9.15534237 11.1195631,8.82772179 10.7739083,8.82772179 L10.306523,8.82772179 L10.306523,4.20646803 C10.306523,4.10728014 10.2268721,4.02762928 10.1276842,4.02762928 L8.9795093,4.02762928 C8.88032141,4.02762928 8.80067053,4.10728016 8.80067055,4.20646803 L8.80067055,8.82772179 L7.88393404,8.82772179 L7.88393404,4.20646803 C7.88393404,4.10728014 7.80428316,4.02762928 7.70509527,4.02762928 L6.56593743,4.02762928 C6.46674954,4.02762928 6.38709866,4.10728016 6.38709866,4.20646803 L6.38709866,8.83673887 L5.64318952,8.83673887 L5.64318952,4.20646803 C5.64318952,4.10728014 5.56353865,4.02762928 5.46435077,4.02762928 L4.32519293,4.02762928 C4.22600504,4.02762928 4.14635417,4.10728016 4.14635417,4.20646803 L4.14635417,8.82772179 L3.22961766,8.82772179 L3.22961766,4.20646803 C3.22961766,4.10728014 3.14996678,4.02762928 3.05077889,4.02762928 L1.91162105,4.02762928 C1.80792463,4.02762928 1.72827375,4.10728016 1.72827375,4.20646803 Z" id="形状"></path>
        </g>
    </g>
</svg>