<?xml version="1.0" encoding="UTF-8"?>
<svg width="12.0000008px" height="11.9999992px" viewBox="0 0 12.0000008 11.9999992" version="1.1" xmlns="http://www.w3.org/2000/svg" xmlns:xlink="http://www.w3.org/1999/xlink">
    <title>icon/map</title>
    <g id="icon/map" stroke="none" stroke-width="1" fill="none" fill-rule="evenodd">
        <rect id="矩形" x="7.55107521e-07" y="0" width="11.9999992" height="11.9999992"></rect>
        <path d="M11.2627779,3.40833291 C11.4325915,3.34957353 11.6203385,3.37657665 11.7667091,3.48081189 C11.9130796,3.58504713 12.0000008,3.75364054 12.0000008,3.93333284 L12.0000008,9.31222105 C12.0000008,9.68799755 11.7891769,10.032007 11.4544445,10.2027765 L8.28111158,11.8205541 C7.9909689,11.968679 7.64686038,11.9661915 7.35888948,11.8138874 L3.89055658,9.97499874 C3.85868617,9.95804465 3.82056577,9.9576303 3.78833436,9.97388763 L0.807223629,11.4888874 C0.635131387,11.5763323 0.429983324,11.5681785 0.265374133,11.4673511 C0.100764942,11.3665238 0.000292985594,11.1874774 7.55107521e-07,10.9944431 L7.55107521e-07,5.13888824 C-0.000351648848,4.92451236 0.122669701,4.72906192 0.316112589,4.63666609 L1.41611245,4.11277726 C1.63779339,4.00722952 1.90306464,4.10137408 2.00861237,4.32305502 C2.11416011,4.54473595 2.02001555,4.8100072 1.79833462,4.91555494 L0.888890287,5.34888821 L0.888890287,10.4499987 L3.38500108,9.18110996 C3.67532437,9.03333165 4.01943367,9.03623378 4.30722319,9.18888773 L7.77500053,11.0277764 C7.80711003,11.0447479 7.8454872,11.0449553 7.87777829,11.0283319 L11.0500001,9.41055436 C11.087543,9.39163647 11.1111941,9.3531498 11.1111112,9.31110994 L11.1111112,4.40111056 L10.5533335,4.59444386 C10.3223261,4.67143682 10.0723759,4.54821111 9.99277672,4.31808871 C9.91317751,4.08796632 10.03357,3.83663928 10.262778,3.75444397 Z M6.00000119,0 C7.93299714,0 9.50000119,1.56700318 9.50000119,3.5 C9.50000119,4.67111053 8.59388932,6.39055476 6.79277844,8.73333223 C6.60349022,8.97953542 6.31055838,9.1238214 6.00000119,9.1238214 C5.68944313,9.1238214 5.39651129,8.97953542 5.20722307,8.73333223 C3.40611219,6.39055476 2.50000119,4.67111053 2.50000119,3.5 C2.50000119,1.56700318 4.06700437,0 6.00000119,0 Z M6.00000076,0.888888786 C4.55792409,0.888888786 3.38888998,2.0579229 3.38888998,3.49999956 C3.38888998,4.40999944 4.2261121,5.99888813 5.91166744,8.19111008 C5.93268593,8.21865614 5.96535163,8.23482013 6.00000076,8.23482013 C6.03464989,8.23482013 6.06731558,8.21865614 6.08833408,8.19111008 C7.77388942,5.99888814 8.61111153,4.40999945 8.61111153,3.49999956 C8.61111153,2.0579229 7.44207742,0.888888786 6.00000076,0.888888786 Z M6.00000076,1.69777756 C6.64390762,1.69772513 7.23892452,2.04121523 7.56089309,2.59884619 C7.88286166,3.15647715 7.88286166,3.84352196 7.56089309,4.40115292 C7.23892452,4.95878388 6.64390762,5.30227399 6.00000076,5.30222155 C5.00471834,5.30214051 4.19792551,4.49528197 4.19792551,3.49999956 C4.19792551,2.50471714 5.00471834,1.69785861 6.00000076,1.69777756 Z M6.00000076,2.58666634 C5.49558075,2.58666634 5.08666754,2.99557955 5.08666754,3.49999956 C5.08666754,4.00441957 5.49558075,4.41333278 6.00000076,4.41333278 C6.50442077,4.41333278 6.91333398,4.00441957 6.91333398,3.49999956 C6.91333398,2.99557955 6.50442077,2.58666634 6.00000076,2.58666634 Z" id="形状结合" fill="#2458C2" fill-rule="nonzero"></path>
    </g>
</svg>