<?xml version="1.0" encoding="UTF-8"?>
<svg width="14px" height="14px" viewBox="0 0 14 14" version="1.1" xmlns="http://www.w3.org/2000/svg" xmlns:xlink="http://www.w3.org/1999/xlink">
    <title>icon/mark</title>
    <g id="icon/mark" stroke="none" stroke-width="1" fill="none" fill-rule="evenodd">
        <rect id="矩形" x="0" y="0" width="14" height="14"></rect>
        <g id="编组" fill="#2458C2" fill-rule="nonzero">
            <path d="M6.95315313,0 C7.94248161,0 8.94456386,1.55596044 9.56949879,2.75663717 L10.3893843,2.43050495 C10.9278529,2.21619177 11.5375153,2.28251626 12.0173031,2.6076044 C12.4970908,2.93269254 12.7846984,3.47432812 12.7852718,4.05387819 L12.7852718,5.25637689 C12.7811138,8.24397723 10.5192697,10.7449867 7.54711461,11.0484123 L7.54711461,13.4169703 C7.54711461,13.7389687 7.28608334,14 6.96408494,14 C6.64208654,14 6.38105527,13.7389687 6.38105527,13.4169703 L6.38105527,11.0484123 C3.40890015,10.7449867 1.14705608,8.24397723 1.142898,5.25637689 L1.142898,4.05934409 C1.1427469,3.47836517 1.43108489,2.93522808 1.91239979,2.60984753 C2.39371468,2.28446698 3.0051816,2.2193141 3.54425152,2.43597085 L4.34227338,2.75663717 C4.96538635,1.55596044 5.96382466,0 6.95315313,0 Z M13.3446159,10.5109316 C13.6540508,10.5106611 13.9097971,10.7521717 13.9272297,11.0611153 C13.9446622,11.3700589 13.7177079,11.6388065 13.4102068,11.6733472 C10.2144754,11.855544 9.27069608,13.602811 9.23243476,13.6775117 C9.08607154,13.9615852 8.73831043,14.0749017 8.45268545,13.9315899 C8.16706046,13.788278 8.05002521,13.4417507 8.19026922,13.154607 L8.20777461,13.1207283 C8.37261235,12.8146106 9.63873356,10.725061 13.3446159,10.5127538 Z M0.583553967,10.5127535 C4.28943632,10.7250609 5.55555753,12.8146106 5.72039527,13.1207283 L5.73790066,13.154607 C5.87804485,13.4434436 5.75831561,13.7912285 5.47007141,13.9325872 C5.39060404,13.9714284 5.30344454,13.9919732 5.21499592,13.99273 C4.99669196,13.9944228 4.7959591,13.8732788 4.69573512,13.6793337 C4.6520079,13.5900573 3.70458468,11.857366 0.517963129,11.6751692 C0.210461953,11.6406284 -0.0164923623,11.3718808 0.000940191329,11.0629372 C0.018372745,10.7539937 0.274119059,10.5124831 0.583553967,10.5127535 Z M6.95315313,1.17516918 C6.60697927,1.28813118 5.75065444,2.50156169 5.14940509,3.75507548 C5.01616196,4.03189132 4.69145704,4.15843073 4.40604225,4.04476835 L3.1106232,3.51821968 C3.04058967,3.48974664 2.96576431,3.47490525 2.89016511,3.47449245 C2.77454915,3.47520888 2.66172237,3.51007109 2.56585485,3.57470068 C2.40356888,3.68222336 2.30685222,3.86468173 2.30892373,4.05934409 L2.30892373,5.26730869 C2.30892373,7.83826464 4.39312899,9.92243623 6.96408494,9.92243623 C9.53504089,9.92243623 11.6192374,7.83826464 11.6192374,5.26730869 L11.6192374,4.06480999 C11.6210083,3.87034338 11.5257243,3.68778438 11.3651599,3.57805933 C11.2045956,3.46833428 10.999893,3.44589103 10.8193686,3.51821968 L9.50390795,4.04476835 C9.21949059,4.15947935 8.89488714,4.03346621 8.76236709,3.75689745 C8.1574738,2.50156169 7.30661487,1.28813118 6.95315313,1.17516918 Z" id="形状结合"></path>
        </g>
    </g>
</svg>