<?xml version="1.0" encoding="UTF-8"?>
<svg width="20px" height="20px" viewBox="0 0 20 20" version="1.1" xmlns="http://www.w3.org/2000/svg" xmlns:xlink="http://www.w3.org/1999/xlink">
    <title>icon/pdf</title>
    <defs>
        <linearGradient x1="50%" y1="0%" x2="50%" y2="100%" id="linearGradient-1">
            <stop stop-color="#FB9281" offset="0%"></stop>
            <stop stop-color="#F5594A" offset="100%"></stop>
        </linearGradient>
        <path d="M9.93113158,8.8417067 C9.06616227,8.77573755 8.23322386,8.44596138 7.56046245,7.85235499 C6.2470043,8.14915819 4.99759668,8.57787649 3.74820033,9.10553692 C2.75508492,10.9193175 1.82604256,11.8427116 1.02514631,11.8427116 C0.864969307,11.8427116 0.672750151,11.8097386 0.54461531,11.7107965 C0.192207893,11.5459084 0,11.1831593 0,10.8203869 C0,10.5235837 0.0640730519,9.6991433 3.10748107,8.34703085 C3.81227338,7.02790297 4.35687743,5.67580211 4.80538879,4.25774369 C4.42095048,3.46626465 3.58801207,1.5205458 4.16465827,0.531217284 C4.35687743,0.168444943 4.74130448,-0.0294161232 5.15778495,0.00355685656 C5.47813894,0.00355685656 5.79849294,0.168456537 5.9907121,0.432275157 C6.4071813,1.02588154 6.37513914,2.27906347 5.8305351,4.12582859 C6.34310825,5.1151687 7.0158584,6.00557828 7.81675466,6.76408435 C8.48951607,6.63216924 9.16226622,6.53322711 9.83501637,6.53322711 C11.3407162,6.56621169 11.564955,7.29173318 11.5329241,7.72043989 C11.5329241,8.8417067 10.4757356,8.8417067 9.93113158,8.8417067 L9.93113158,8.8417067 Z M0.961073253,10.8863329 L1.05718846,10.8533599 C1.50568856,10.6884602 1.85807345,10.3586841 2.11436566,9.92996575 C1.63383467,10.1278384 1.24939636,10.4576146 0.961073253,10.8863445 L0.961073253,10.8863329 Z M5.22184674,0.992908564 L5.12574279,0.992908564 C5.09371189,0.992908564 5.02963884,0.992908564 4.99759668,1.02588154 C4.86946184,1.58651495 4.96556579,2.18012134 5.18981584,2.70777017 C5.382035,2.14713676 5.382035,1.55353038 5.22184674,0.992908564 Z M5.44610805,5.77473264 L5.41406589,5.84070179 L5.382035,5.80771721 C5.09371189,6.56621169 4.77334663,7.32470616 4.42095048,8.05022765 L4.48503479,8.01724308 L4.48503479,8.08321223 C5.18981584,7.81938201 5.9586812,7.58853637 6.66346225,7.42363669 L6.63143135,7.39066371 L6.7275353,7.39066371 C6.2470043,6.89598786 5.79849294,6.33536605 5.44610805,5.77473264 Z M9.80298548,7.52257882 C9.51466237,7.52257882 9.25837017,7.52257882 8.97004706,7.58853637 C9.29041232,7.75342446 9.61077758,7.81937042 9.93113158,7.85235499 C10.1553704,7.88533957 10.3796317,7.85235499 10.5718508,7.78639744 C10.5718508,7.68746691 10.4437047,7.52257882 9.80298548,7.52257882 L9.80298548,7.52257882 Z" id="path-2"></path>
    </defs>
    <g id="icon/pdf" stroke="none" stroke-width="1" fill="none" fill-rule="evenodd">
        <rect id="矩形" x="0" y="0" width="20" height="20"></rect>
        <g id="pdf" transform="translate(1, 0)">
            <path d="M2.48447205,0 L13.1428571,0 L13.1428571,0 L18,5 L18,17.515528 C18,18.887664 16.887664,20 15.515528,20 L2.48447205,20 C1.11233603,20 -2.76051011e-16,18.887664 -4.4408921e-16,17.515528 L-4.4408921e-16,2.48447205 C-6.12127409e-16,1.11233603 1.11233603,2.52057299e-16 2.48447205,0 Z" id="矩形" fill="url(#linearGradient-1)"></path>
            <g transform="translate(3.0357, 5)" id="椭圆形">
                <mask id="mask-3" fill="white">
                    <use xlink:href="#path-2"></use>
                </mask>
                <use id="蒙版" fill="#FFFFFF" fill-rule="nonzero" xlink:href="#path-2"></use>
                <path d="M10.683691,10.0007219 C11.857296,10.0007219 12.808691,9.02134477 12.808691,7.81322188 C12.808691,6.60509899 11.857296,5.62572188 10.683691,5.62572188 C10.1473979,5.62572188 9.52563626,6.00528625 8.81840595,6.76441499 C8.72555796,6.9108079 8.65739268,7.07570353 8.61391013,7.25910187 C8.57042758,7.44250021 8.55261168,7.64025125 8.56046245,7.85235499 C9.20398496,9.28459958 9.9117278,10.0007219 10.683691,10.0007219 Z" fill="#F05642" opacity="0.300362723" mask="url(#mask-3)"></path>
            </g>
            <path d="M13.1428571,0 L18,5 L15.2132505,5 C14.0698038,5 13.1428571,4.07305331 13.1428571,2.92960663 L13.1428571,0 L13.1428571,0 Z" id="矩形" fill="#FFFFFF" opacity="0.499627976"></path>
        </g>
    </g>
</svg>