<?xml version="1.0" encoding="UTF-8"?>
<svg width="24px" height="24px" viewBox="0 0 24 24" version="1.1" xmlns="http://www.w3.org/2000/svg" xmlns:xlink="http://www.w3.org/1999/xlink">
    <title>图标</title>
    <g id="页面-1" stroke="none" stroke-width="1" fill="none" fill-rule="evenodd">
        <g id="个人主页" transform="translate(-448, -125)" fill="#2458C2">
            <g id="图标" transform="translate(448, 125)">
                <circle id="椭圆形" fill-opacity="0.09" cx="12" cy="12" r="12"></circle>
                <path d="M15.2340066,14.1100066 L17.104,17.999 L6.671,17.999 L8.23900657,14.8620066 L12.9451841,16.618529 L13.382356,16.7817201 L13.6481565,16.398183 L15.2340066,14.1100066 Z M18,6.00000049 L18,17.095 L12.665,6 L18,6.00000049 Z M11.329,6 L6,16.659 L6.00013143,6.00000049 L11.329,6 Z M13.6670066,10.8510066 L14.6360066,12.8660066 L12.9265829,15.3306853 L8.77900657,13.7820066 L9.74400657,11.8510066 L12.1833754,11.851473 L12.3353855,11.7490263 L13.6670066,10.8510066 Z M11.9892658,7.36198557 L13.1410066,9.75800657 L11.8148856,10.6513888 L10.3440066,10.6510066 L11.9892658,7.36198557 Z" id="形状结合"></path>
            </g>
        </g>
    </g>
</svg>