<?xml version="1.0" encoding="UTF-8"?>
<svg width="14px" height="14px" viewBox="0 0 14 14" version="1.1" xmlns="http://www.w3.org/2000/svg" xmlns:xlink="http://www.w3.org/1999/xlink">
    <title>icon/share</title>
    <g id="icon/share" stroke="none" stroke-width="1" fill="none" fill-rule="evenodd">
        <rect id="矩形" x="0" y="0" width="14" height="14"></rect>
        <g id="编组" fill="#2458C2" fill-rule="nonzero">
            <path d="M6.96774795,0.0026826143 C7.27621663,0.00332913054 7.53083804,0.244066397 7.54876176,0.552014584 C7.56668549,0.859962771 7.3417124,1.12861422 7.03540165,1.16504318 L6.96774795,1.16912573 L2.64024399,1.16912573 C1.86491401,1.17243123 1.22340285,1.77324383 1.16935922,2.54669505 L1.16644312,2.64292661 L1.16644312,11.359756 C1.16974862,12.135086 1.77056121,12.7765972 2.54401243,12.8306408 L2.64024399,12.8335569 L11.3570734,12.8335569 C12.1324034,12.8302514 12.7739145,12.2294388 12.8279582,11.4559876 L12.8308743,11.359756 L12.8308743,6.99375943 C12.8312165,6.68518075 13.0718675,6.4302713 13.379916,6.41218716 C13.6879645,6.39410303 13.9567888,6.6191035 13.9932348,6.9255225 L13.9973174,6.99375943 L13.9973174,11.359756 C13.9973174,12.7711522 12.877532,13.9317631 11.4807164,13.9970839 L11.3570734,14 L2.64024399,14 C1.23146322,13.9967347 0.0721408286,12.8904817 0.00291610779,11.483399 L0,11.359756 L0,2.64292661 C0,1.23153044 1.11978539,0.0709195366 2.51660102,0.00559872209 L2.64024399,0.0026826143 L6.96774795,0.0026826143 Z M12.0837675,0.179981968 L12.1310084,0.235971237 L13.8952536,2.58927022 L13.8806731,2.56885747 C13.9005026,2.59568566 13.9179993,2.62309707 13.933163,2.65225815 L13.9553254,2.70124876 L13.969906,2.74265749 L13.9874026,2.80914475 L13.9961509,2.88204744 L13.9961509,2.95436692 C13.9896332,3.0906822 13.9353294,3.22035079 13.8427637,3.32063006 L12.1310084,5.60160957 C11.9463648,5.84818409 11.6018004,5.90864469 11.3442394,5.73966368 C11.0866784,5.57068266 11.004945,5.23053601 11.1576116,4.96298196 L11.1978539,4.9017437 L12.2266567,3.53117304 L12.0394426,3.54458713 C11.3080828,3.60290929 10.5895538,3.7195536 9.92234836,3.9061845 C9.12450127,4.13014158 8.44504816,4.44274833 7.91431654,4.85391953 C7.45577037,5.19739357 7.05661196,5.61369256 6.73270966,6.08626668 C6.23907304,6.80980961 5.9339533,7.64518013 5.84504645,8.51655091 L5.83629813,8.63319523 L5.82929947,8.81049458 C5.79893284,9.10458949 5.55330468,9.32943538 5.2576777,9.33381531 C4.96205071,9.338069 4.70996218,9.12049087 4.67102146,8.827408 L4.66516117,8.75333887 C4.6640228,8.50430326 4.69901609,8.12345958 4.80516241,7.65338301 C4.98230537,6.85694687 5.30970253,6.10159768 5.76981087,5.42780954 C6.16365742,4.85265975 6.64888149,4.3457651 7.20628557,3.92718048 C7.86240982,3.41861128 8.67483745,3.04476626 9.60799194,2.783483 C10.3539323,2.57410646 11.1447807,2.44579772 11.9461272,2.38164335 L12.2663158,2.35948093 L11.1978539,0.935837107 C11.0109277,0.689566955 11.0486627,0.340219507 11.2838658,0.139545915 C11.5190689,-0.0611276757 11.8700003,-0.043387643 12.0837675,0.179981968 L12.0837675,0.179981968 Z" id="形状"></path>
        </g>
    </g>
</svg>