<?xml version="1.0" encoding="UTF-8"?>
<svg width="24px" height="24px" viewBox="0 0 24 24" version="1.1" xmlns="http://www.w3.org/2000/svg" xmlns:xlink="http://www.w3.org/1999/xlink">
    <title>微博</title>
    <g id="页面-1" stroke="none" stroke-width="1" fill="none" fill-rule="evenodd">
        <g id="个人主页" transform="translate(-648, -125)" fill="#2458C2">
            <g id="微博" transform="translate(648, 125)">
                <circle id="椭圆形备份-5" fill-opacity="0.09" cx="12" cy="12" r="12"></circle>
                <g id="编组" transform="translate(5, 6)" fill-rule="nonzero">
                    <path d="M11.2781278,6.30063006 C11.5049505,6.4770477 11.6645665,6.68916892 11.7569757,6.9369937 C11.8493849,7.18481848 11.8871887,7.44314431 11.870387,7.7119712 C11.8535854,7.98079808 11.7947795,8.24962496 11.6939694,8.51845185 C11.5931593,8.78727873 11.4629463,9.03090309 11.3033303,9.24932493 C11.0177018,9.64416442 10.6942694,9.98019802 10.3330333,10.2574257 C9.97179718,10.5346535 9.5979598,10.7656766 9.21152115,10.950495 C8.82508251,11.1353135 8.43654365,11.280228 8.04590459,11.3852385 C7.65526553,11.490249 7.28772877,11.5679568 6.94329433,11.6183618 C6.59885989,11.6687669 6.29012901,11.70027 6.01710171,11.7128713 C5.74407441,11.7254725 5.5319532,11.7317732 5.38073807,11.7317732 C5.22952295,11.7317732 5.02790279,11.7212721 4.77587759,11.70027 C4.52385239,11.6792679 4.24452445,11.6372637 3.93789379,11.5742574 C3.63126313,11.5112511 3.30993099,11.4230423 2.97389739,11.309631 C2.63786379,11.1962196 2.31023102,11.0471047 1.9909991,10.8622862 C1.67176718,10.6774677 1.36723672,10.4506451 1.07740774,10.1818182 C0.787578758,9.9129913 0.541854185,9.58955896 0.340234023,9.21152115 C0.205820582,8.96789679 0.115511551,8.70747075 0.0693069307,8.43024302 C0.0231023102,8.1530153 0,7.80018002 0,7.37173717 C0,7.18691869 0.0315031503,6.97689769 0.0945094509,6.74167417 C0.157515752,6.50645065 0.268826883,6.2460246 0.428442844,5.96039604 C0.588058806,5.67476748 0.806480648,5.36393639 1.08370837,5.02790279 C1.36093609,4.69186919 1.71377138,4.32223222 2.14221422,3.9189919 C2.56225623,3.52415242 2.9969997,3.17341734 3.44644464,2.86678668 C3.89588959,2.56015602 4.37683768,2.32283228 4.88928893,2.15481548 C5.12451245,2.07080708 5.38493849,2.02460246 5.67056706,2.01620162 C5.95619562,2.00780078 6.19141914,2.0540054 6.37623762,2.15481548 C6.46024602,2.24722472 6.54005401,2.34173417 6.61566157,2.43834383 C6.69126913,2.5349535 6.74167417,2.65466547 6.76687669,2.79747975 C6.79207921,2.91509151 6.79417942,3.02850285 6.77317732,3.13771377 C6.75217522,3.24692469 6.72907291,3.35613561 6.70387039,3.46534653 C6.67866787,3.57455746 6.65766577,3.67956796 6.64086409,3.78037804 C6.62406241,3.88118812 6.63246325,3.97359736 6.66606661,4.05760576 C6.80888089,4.07440744 6.94749475,4.06810681 7.08190819,4.03870387 C7.21632163,4.00930093 7.34653465,3.97149715 7.47254725,3.92529253 C7.59855986,3.87908791 7.72667267,3.83078308 7.85688569,3.78037804 C7.98709871,3.729973 8.12361236,3.69216922 8.26642664,3.6669667 C8.49324932,3.6249625 8.7179718,3.60606061 8.94059406,3.61026103 C9.16321632,3.61446145 9.36483648,3.6459646 9.54545455,3.70477048 C9.72607261,3.76357636 9.87518752,3.85388539 9.99279928,3.97569757 C10.110411,4.09750975 10.1818182,4.2550255 10.2070207,4.44824482 C10.2238224,4.56585659 10.2154215,4.67506751 10.1818182,4.77587759 C10.1482148,4.87668767 10.1125113,4.97119712 10.0747075,5.05940594 C10.0369037,5.14761476 10.0075008,5.23792379 9.98649865,5.33033303 C9.96549655,5.42274227 9.97179718,5.51935194 10.0054005,5.62016202 C10.0306031,5.6789679 10.0915092,5.73357336 10.1881188,5.7839784 C10.2847285,5.83438344 10.3960396,5.88478848 10.5220522,5.93519352 C10.6480648,5.98559856 10.780378,6.04020402 10.9189919,6.0990099 C11.0576058,6.15781578 11.1773177,6.2250225 11.2781278,6.30063006 Z M8.10261026,10.219622 C8.3210321,10.0852085 8.54155416,9.90039004 8.76417642,9.66516652 C8.98679868,9.42994299 9.16741674,9.16741674 9.3060306,8.87758776 C9.44464446,8.58775878 9.52235224,8.27692769 9.53915392,7.94509451 C9.5559556,7.61326133 9.47194719,7.27932793 9.28712871,6.94329433 C9.12751275,6.66606661 8.93219322,6.43084308 8.70117012,6.23762376 C8.47014701,6.04440444 8.21182118,5.89108911 7.92619262,5.77767777 C7.64056406,5.66426643 7.3360336,5.58235824 7.01260126,5.5319532 C6.68916892,5.48154815 6.35943594,5.45634563 6.02340234,5.45634563 C5.37653765,5.45634563 4.80318032,5.52355236 4.30333033,5.6579658 C3.80348035,5.79237924 3.37083708,5.96879688 3.00540054,6.18721872 C2.639964,6.40564056 2.34383438,6.65346535 2.1170117,6.93069307 C1.89018902,7.20792079 1.73057306,7.48934893 1.63816382,7.7749775 C1.54575458,8.05220522 1.51845185,8.32733273 1.55625563,8.60036004 C1.59405941,8.87338734 1.68016802,9.13171317 1.81458146,9.37533753 C1.9489949,9.6189619 2.12331233,9.83738374 2.33753375,10.0306031 C2.55175518,10.2238224 2.78907891,10.3792379 3.04950495,10.4968497 C3.52835284,10.7068707 4.01770177,10.8391839 4.51755176,10.8937894 C5.01740174,10.9483948 5.49414941,10.950495 5.94779478,10.90009 C6.40144014,10.849685 6.81518152,10.7614761 7.1890189,10.6354635 C7.56285629,10.5094509 7.86738674,10.3708371 8.10261026,10.219622 L8.10261026,10.219622 Z M6.45184518,6.23762376 C6.61986199,6.30483048 6.77947795,6.38043804 6.93069307,6.46444644 C7.08190819,6.54845485 7.21632163,6.66186619 7.33393339,6.80468047 C7.41794179,6.90549055 7.49144914,7.03150315 7.55445545,7.18271827 C7.61746175,7.33393339 7.66156616,7.49564956 7.68676868,7.66786679 C7.7119712,7.84008401 7.71827183,8.01440144 7.70567057,8.19081908 C7.69306931,8.36723672 7.65316532,8.52685269 7.5859586,8.66966697 C7.51875188,8.82088209 7.43684368,8.97419742 7.34023402,9.12961296 C7.24362436,9.2850285 7.1260126,9.42994299 6.98739874,9.56435644 C6.84878488,9.69876988 6.68286829,9.81848185 6.48964896,9.92349235 C6.29642964,10.0285029 6.06120612,10.1062106 5.7839784,10.1566157 C5.27992799,10.2490249 4.79687969,10.2028203 4.33483348,10.0180018 C3.87278728,9.83318332 3.51155116,9.52655266 3.25112511,9.09810981 C3.15031503,8.77047705 3.09570957,8.48064806 3.08730873,8.22862286 C3.07890789,7.97659766 3.14611461,7.70357036 3.28892889,7.40954095 C3.39813981,7.18271827 3.56405641,6.97059706 3.78667867,6.77317732 C4.00930093,6.57575758 4.26552655,6.41614161 4.55535554,6.29432943 C4.84518452,6.17251725 5.15391539,6.10111011 5.48154815,6.08010801 C5.80918092,6.05910591 6.13261326,6.11161116 6.45184518,6.23762376 Z M4.44824482,9.33753375 C4.75907591,9.36273627 4.99639964,9.28712871 5.16021602,9.11071107 C5.3240324,8.93429343 5.41224122,8.73687369 5.42484248,8.51845185 C5.43744374,8.30003 5.37443744,8.10471047 5.23582358,7.93249325 C5.09720972,7.76027603 4.88088809,7.6909691 4.58685869,7.72457246 C4.360036,7.74977498 4.18361836,7.84638464 4.05760576,8.01440144 C3.93159316,8.18241824 3.86018602,8.36093609 3.84338434,8.549955 C3.82658266,8.7389739 3.86648665,8.91329133 3.96309631,9.07290729 C4.05970597,9.23252325 4.22142214,9.32073207 4.44824482,9.33753375 Z M9.60216022,0 C10.2154215,0 10.7887789,0.0819081908 11.3222322,0.245724572 C11.8556856,0.409540954 12.3219322,0.646864686 12.7209721,0.95769577 C13.120012,1.26852685 13.4329433,1.64656466 13.659766,2.09180918 C13.8865887,2.53705371 14,3.04110411 14,3.6039604 C14,3.88118812 13.9327933,4.08910891 13.7983798,4.22772277 C13.6639664,4.36633663 13.5190519,4.43774377 13.3636364,4.44194419 C13.2082208,4.44614461 13.0633063,4.38733873 12.9288929,4.26552655 C12.7944794,4.14371437 12.7272727,3.95679568 12.7272727,3.70477048 C12.7272727,3.36873687 12.6348635,3.04950495 12.450045,2.74707471 C12.2652265,2.44464446 12.0216022,2.180018 11.7191719,1.95319532 C11.4167417,1.72637264 11.070207,1.54785479 10.679568,1.41764176 C10.2889289,1.28742874 9.8919892,1.22232223 9.48874887,1.22232223 C9.22832283,1.22232223 9.03510351,1.15931593 8.90909091,1.03330333 C8.78307831,0.907290729 8.72427243,0.766576658 8.73267327,0.611161116 C8.74107411,0.455745575 8.81878188,0.315031503 8.96579658,0.189018902 C9.11281128,0.0630063006 9.32493249,0 9.60216022,0 L9.60216022,0 Z M9.60216022,2.01620162 C10.3834383,2.01620162 10.9756976,2.21572157 11.3789379,2.61476148 C11.7821782,3.01380138 11.9837984,3.61656166 11.9837984,4.4230423 C11.9837984,4.67506751 11.9417942,4.85358536 11.8577858,4.95859586 C11.7737774,5.06360636 11.6813681,5.10981098 11.5805581,5.09720972 C11.479748,5.08460846 11.3873387,5.02370237 11.3033303,4.91449145 C11.2193219,4.80528053 11.1773177,4.65826583 11.1773177,4.47344734 C11.1773177,3.97779778 11.0345035,3.5829583 10.7488749,3.28892889 C10.4632463,2.99489949 10.0810081,2.84788479 9.60216022,2.84788479 C9.44254425,2.84788479 9.32493249,2.80378038 9.24932493,2.71557156 C9.17371737,2.62736274 9.13591359,2.53285329 9.13591359,2.4320432 C9.13591359,2.33123312 9.17581758,2.23672367 9.25562556,2.14851485 C9.33543354,2.06030603 9.45094509,2.01620162 9.60216022,2.01620162 L9.60216022,2.01620162 Z" id="形状"></path>
                </g>
            </g>
        </g>
    </g>
</svg>