<?xml version="1.0" encoding="UTF-8"?>
<svg width="12px" height="12px" viewBox="0 0 12 12" version="1.1" xmlns="http://www.w3.org/2000/svg" xmlns:xlink="http://www.w3.org/1999/xlink">
    <title>icon/xglw</title>
    <g id="icon/xglw" stroke="none" stroke-width="1" fill="none" fill-rule="evenodd">
        <rect id="矩形" x="0" y="0" width="12" height="12"></rect>
        <g id="编组" transform="translate(0, 0)" fill="#2458C2" fill-rule="nonzero">
            <path d="M10.5796526,0 C11.3629274,0 11.9983579,0.634096627 12,1.41736973 L12,10.5766749 C11.9967504,11.3602456 11.3632147,11.9951094 10.5796526,12 L1.42034739,12 C0.637072568,12 0.00164208302,11.3659034 0,10.5826303 L0,3.70719603 C0.00164209071,2.92392293 0.637072574,2.28982459 1.42034739,2.28982631 L2.75136476,2.28982631 L2.75136476,1.41736973 C2.75136476,0.634578044 3.38594281,0 4.16873449,0 Z M10.5736973,1.00049628 L4.16873449,1.00049628 C3.94100458,1.00528665 3.75799651,1.18961133 3.75483872,1.41736973 L3.75483872,9.20694789 C3.76936942,9.39542817 3.67704323,9.57615229 3.51580791,9.67483933 C3.35457259,9.77352636 3.15163089,9.77352636 2.99039557,9.67483933 C2.82916025,9.57615229 2.73683406,9.39542817 2.75136476,9.20694789 L2.75136476,3.29925559 L1.42034739,3.29925559 C1.1924344,3.30087781 1.00807384,3.48523837 1.00645162,3.71315137 L1.00645162,10.5826303 C1.00804869,10.8110414 1.19195357,10.9962694 1.42034739,10.9995037 L10.5736973,10.9995037 C10.8020911,10.9962694 10.985996,10.8110414 10.987593,10.5826303 L10.987593,1.41736973 C10.985996,1.18895859 10.8020911,1.00373065 10.5736973,1.00049628 Z M9.20397023,7.32506203 C9.48189417,7.32506203 9.70719603,7.5503639 9.70719603,7.82828784 C9.70719603,8.10621178 9.48189417,8.33151365 9.20397023,8.33151365 L5.54441687,8.33151365 C5.26649293,8.33151365 5.04119107,8.10621178 5.04119107,7.82828784 C5.04119107,7.5503639 5.26649293,7.32506203 5.54441687,7.32506203 Z M9.20397023,3.66253101 C9.48189417,3.66253101 9.70719603,3.88783288 9.70719603,4.16575682 C9.70719603,4.44368076 9.48189417,4.66898263 9.20397023,4.66898263 L5.54441687,4.66898263 C5.26649293,4.66898263 5.04119107,4.44368076 5.04119107,4.16575682 C5.04119107,3.88783288 5.26649293,3.66253101 5.54441687,3.66253101 Z" id="形状结合"></path>
        </g>
    </g>
</svg>