<?xml version="1.0" encoding="UTF-8"?>
<svg width="12px" height="12px" viewBox="0 0 12 12" version="1.1" xmlns="http://www.w3.org/2000/svg" xmlns:xlink="http://www.w3.org/1999/xlink">
    <title>icon/xszz</title>
    <g id="icon/xszz" stroke="none" stroke-width="1" fill="none" fill-rule="evenodd">
        <rect id="矩形" x="0" y="0" width="12" height="12"></rect>
        <g id="编组" fill="#2458C2" fill-rule="nonzero">
            <path d="M5.99913207,0 C9.34066252,0 11.9991321,2.73397946 11.9991321,6 C12.074642,9.34153045 9.34066253,12 5.99913207,12 C2.65760162,12 0,9.26602054 0,6 C0,2.65846955 2.73397946,0 5.99913207,0 Z M6.07550991,7.36698973 C4.28883932,7.36698973 2.97311366,8.51016437 2.82367289,10.163335 C3.70592364,10.8388389 4.80714344,11.2405613 5.99913207,11.2405613 C7.22382197,11.2405613 8.35285069,10.8164947 9.24685119,10.1077285 C9.08206521,8.48461428 7.84129414,7.36698973 6.07550991,7.36698973 Z M5.99913207,0.760306659 C3.11326486,0.760306659 0.759438739,3.11413279 0.759438739,6 C0.759438739,7.3669391 1.28754343,8.61470413 2.15014825,9.54950606 C2.43106766,8.27785254 3.29261742,7.31504878 4.50377607,6.87357241 C3.79919429,6.38291094 3.34153045,5.56516858 3.34153045,4.63301027 C3.34153045,3.11413279 4.55663244,1.89903081 6.07550991,1.89903081 C7.59438739,1.89903081 8.80948938,3.11413279 8.80948938,4.63301027 C8.80948938,5.57571634 8.34140962,6.40140248 7.62313881,6.89217999 C8.77011888,7.33917879 9.60667938,8.28576739 9.90502312,9.48680796 C10.7345565,8.55932594 11.2396933,7.3366375 11.2396933,6 C11.2396933,3.11413279 8.88499928,0.760306659 5.99913207,0.760306659 Z M6.07550991,2.65846955 C5.01229568,2.65846955 4.10096919,3.56979603 4.10096919,4.63301027 C4.10096919,5.6962245 5.01229568,6.60755099 6.07550991,6.60755099 C7.13872415,6.60755099 8.05005064,5.6962245 8.05005064,4.63301027 C8.05005064,3.56979603 7.13872415,2.65846955 6.07550991,2.65846955 Z" id="形状结合"></path>
        </g>
    </g>
</svg>