<?xml version="1.0" encoding="UTF-8"?>
<svg width="12px" height="12px" viewBox="0 0 12 12" version="1.1" xmlns="http://www.w3.org/2000/svg" xmlns:xlink="http://www.w3.org/1999/xlink">
    <title>icon/xtyx</title>
    <g id="icon/xtyx" stroke="none" stroke-width="1" fill="none" fill-rule="evenodd">
        <rect id="矩形" x="0" y="0" width="12" height="12"></rect>
        <path d="M5.62797203,0.769155677 C5.81137888,0.397532818 6.34130126,0.397532818 6.52470811,0.769155677 L8.02434007,3.80843853 L11.3790501,4.29604156 C11.7598667,4.35137745 11.9282648,4.78988949 11.7127772,5.08385593 L11.6561568,5.14888825 L9.22834007,7.51343853 L9.80196312,10.8555095 C9.86734795,11.2367323 9.49824748,11.5334814 9.15051037,11.4145631 L9.07648839,11.3825977 L6.07634007,9.80443853 L3.07619174,11.3825977 C2.7338323,11.5625867 2.33754888,11.3032518 2.34319014,10.9357864 L2.35071702,10.8555095 L2.92334007,7.51343853 L0.496523383,5.14888825 C0.22096191,4.88028219 0.342475881,4.42653657 0.689598107,4.31537312 L0.77363007,4.29604156 L4.12734007,3.80843853 L5.62797203,0.769155677 Z M6.07634007,2.11943853 L4.90829866,4.48692465 C4.83546766,4.63449639 4.69468486,4.73678108 4.53182978,4.76044531 L1.92034007,5.13943853 L3.80994049,6.98219209 C3.90421493,7.07408695 3.95748533,7.19838598 3.9607792,7.32747469 L3.95373881,7.4247578 L3.50634007,10.0264385 L5.8436695,8.79787282 C5.96019911,8.73660958 6.09487598,8.72435693 6.2186645,8.76111488 L6.30901063,8.79787282 L8.64534007,10.0264385 L8.19894133,7.4247578 C8.17668615,7.29500017 8.20665063,7.16312858 8.27986227,7.05675754 L8.34273964,6.98219209 L10.2313401,5.13943853 L7.62085035,4.76044531 C7.49056629,4.74151392 7.37440849,4.67226545 7.29586726,4.56976658 L7.24438147,4.48692465 L6.07634007,2.11943853 Z" id="星形" fill="#2458C2" fill-rule="nonzero"></path>
    </g>
</svg>