<?xml version="1.0" encoding="UTF-8"?>
<svg width="24px" height="24px" viewBox="0 0 24 24" version="1.1" xmlns="http://www.w3.org/2000/svg" xmlns:xlink="http://www.w3.org/1999/xlink">
    <title>学历</title>
    <g id="页面-1" stroke="none" stroke-width="1" fill="none" fill-rule="evenodd">
        <g id="个人主页" transform="translate(-528, -125)" fill="#2458C2">
            <g id="学历" transform="translate(528, 125)">
                <circle id="椭圆形备份-2" fill-opacity="0.09" cx="12" cy="12" r="12"></circle>
                <g id="编组" transform="translate(4, 6)" fill-rule="nonzero">
                    <path d="M12.4654181,6.14300431 L12.4654181,10.4524989 C11.2986345,11.5720005 9.7396939,12.1898333 8.12278236,12.173554 C6.4289384,12.2172308 4.78458617,11.5999839 3.53787326,10.4524989 L3.53787326,6.44698881 C4.47839674,6.83782602 5.5332001,7.17038049 6.80627805,7.61835766 C7.61217919,7.95307217 8.51513803,7.9477097 9.312436,7.60350128 C10.1375368,7.25609041 11.2506229,6.67783418 12.4654181,6.14300431 Z M6.83484802,0.37529837 C7.70337516,0.0107455277 8.16620872,-0.176673488 8.96159673,0.22787732 C10.3786673,0.832417921 13.6322158,2.0792115 15.238991,2.77403322 C16.3017939,3.24458065 16.0307363,3.48114002 15.6638979,3.67366592 L15.5044268,3.75403489 C15.434153,3.78904852 15.3668212,3.82344909 15.3109873,3.85854935 L15.3109873,6.1578607 L15.8892435,6.73611692 C16.030935,6.87279945 16.0375324,7.09762068 15.9040999,7.24237683 L15.1235683,8.02290846 C15.0575716,8.09214838 14.9660926,8.13133155 14.8704383,8.13133155 C14.7747841,8.13133155 14.6833051,8.09214838 14.6173084,8.02290846 L13.8367767,7.24237683 C13.7675368,7.1763801 13.7283537,7.08490112 13.7283537,6.98924687 C13.7283537,6.89359263 13.7675368,6.80211365 13.8367767,6.73611692 L14.357893,6.21500064 L14.357893,4.29395572 C10.9306392,5.7361679 9.83126668,6.19328745 9.07930502,6.53612712 C8.43976692,6.87350589 7.67988195,6.89503597 7.02226705,6.59440986 C6.27030537,6.30528176 2.69905888,4.96020747 0.919721029,4.09282313 C-0.265361406,3.51342409 -0.352214114,3.13744326 0.934577418,2.64603975 C1.59968636,2.3854816 2.44307193,2.06037817 3.30916721,1.72792427 L4.17707064,1.39513852 C5.18501214,1.00897273 6.15328277,0.638751605 6.83484802,0.37529837 Z" id="形状结合"></path>
                </g>
            </g>
        </g>
    </g>
</svg>