<?xml version="1.0" encoding="UTF-8"?>
<svg width="14px" height="14px" viewBox="0 0 14 14" version="1.1" xmlns="http://www.w3.org/2000/svg" xmlns:xlink="http://www.w3.org/1999/xlink">
    <title>icon/ybrl</title>
    <g id="icon/ybrl" stroke="none" stroke-width="1" fill="none" fill-rule="evenodd">
        <rect id="矩形" x="0" y="0" width="14" height="14"></rect>
        <g id="编组" fill="#2458C2" fill-rule="nonzero">
            <path d="M6.68434253,0 C8.98104693,0 10.8206415,1.86570149 10.8206415,4.13629888 C10.8211161,6.39479212 8.96443338,8.25289884 6.68457987,8.27259776 C6.5967654,8.36990568 6.50895093,8.27259776 6.36631175,8.27259776 C3.97562213,8.27259776 0.960025761,10.5650301 0.960025761,13.2803959 C0.958326794,13.5438461 0.74358393,13.7561463 0.480131549,13.7548414 C0.353528486,13.7556521 0.231791702,13.7061126 0.141735335,13.6171246 C0.0516789687,13.5281367 0.000690206931,13.4069998 0,13.2803959 C0,11.0366175 1.87448293,8.49308328 4.51722381,7.6887502 C3.25364479,6.9833864 2.54804365,5.67305211 2.54804365,4.13629888 C2.54804365,1.86570149 4.38763813,0 6.68434253,0 Z M13.4008332,7.94946461 C13.6062365,8.13402917 13.6231297,8.45016062 13.4385651,8.65556396 L9.24224221,13.3256844 C9.05137793,13.5380988 8.72167838,13.5477855 8.51867244,13.3469432 L6.33292574,11.1844927 C6.13662027,10.9902795 6.13492415,10.6737016 6.32913736,10.4773961 C6.52335057,10.2810906 6.83992851,10.2793945 7.03623399,10.4736077 L8.84857987,12.2663803 L12.6947338,7.98719655 C12.8792984,7.78179321 13.1954298,7.76490004 13.4008332,7.94946461 Z M6.68457987,0.954567024 C4.9206957,0.954567024 3.50284801,2.39235097 3.50284801,4.13629888 C3.50284801,5.88024679 4.9206957,7.31803073 6.68457987,7.31803073 C8.44846403,7.31803073 9.86631172,5.88024679 9.86631172,4.13629888 C9.86631172,2.39235097 8.44870137,0.954567024 6.68457987,0.954567024 Z" id="形状结合"></path>
        </g>
    </g>
</svg>