<?xml version="1.0" encoding="UTF-8"?>
<svg width="24px" height="24px" viewBox="0 0 24 24" version="1.1" xmlns="http://www.w3.org/2000/svg" xmlns:xlink="http://www.w3.org/1999/xlink">
    <title>邮箱</title>
    <g id="页面-1" stroke="none" stroke-width="1" fill="none" fill-rule="evenodd">
        <g id="个人主页" transform="translate(-568, -125)" fill="#2458C2">
            <g id="邮箱" transform="translate(568, 125)">
                <circle id="椭圆形备份-3" fill-opacity="0.09" cx="12" cy="12" r="12"></circle>
                <g id="编组" transform="translate(5, 6.5)" fill-rule="nonzero">
                    <path d="M1.40016187,0 L12.5998381,0 C13.3638571,0 13.9902879,0.610243959 14,1.35807608 L7.00242803,5.19921378 L0.00647473696,1.36293213 C0.0129494739,0.611862643 0.634524222,0 1.40016187,0 Z M0.00647473696,2.83269742 L0,9.6246965 C0,10.380622 0.62966817,10.9989594 1.40016187,10.9989594 L12.5998381,10.9989594 C13.3703318,10.9989594 14,10.380622 14,9.6246965 L14,2.82946005 L7.16753382,6.49092381 C7.06231934,6.54757775 6.93606197,6.54757775 6.83246618,6.49092381 L0.00647473696,2.83269742 Z" id="形状"></path>
                </g>
            </g>
        </g>
    </g>
</svg>