<?xml version="1.0" encoding="UTF-8"?>
<svg width="14px" height="14px" viewBox="0 0 14 14" version="1.1" xmlns="http://www.w3.org/2000/svg" xmlns:xlink="http://www.w3.org/1999/xlink">
    <title>icon/yy</title>
    <g id="icon/yy" stroke="none" stroke-width="1" fill="none" fill-rule="evenodd">
        <rect id="矩形" x="0" y="0" width="14" height="14"></rect>
        <g id="编组" transform="translate(0, 1)" fill="#2458C2" fill-rule="nonzero">
            <path d="M6.11073901,-4.57223558e-16 C6.14945107,-4.57223558e-16 6.18075017,0.0321227688 6.17663187,0.0691875019 L6.17498455,1.19348441 C6.17542668,1.21183555 6.16855805,1.2296102 6.15589071,1.24289546 C6.14322337,1.25618072 6.12579575,1.2638875 6.10744437,1.26431923 L4.54578361,1.28491075 C3.38854027,1.28491075 2.52287284,1.55424781 1.97184381,2.15552015 C1.1811295,3.01624562 1.25525896,4.25585503 1.25855361,4.30527467 L1.26184825,4.3341028 L1.26184825,5.46581265 L5.44933944,5.46581265 C5.63516425,5.46646645 5.813106,5.54096929 5.94396296,5.6729077 C6.07481991,5.80484612 6.14785571,5.98339503 6.14698008,6.16921892 L6.14698008,11.6523285 C6.14785571,11.8381523 6.07481991,12.0167013 5.94396296,12.1486397 C5.813106,12.2805781 5.63516425,12.3550809 5.44933944,12.3557347 L0.70340627,12.3557347 C0.517438519,12.3552992 0.339285077,12.2808926 0.208250043,12.1489304 C0.0772150091,12.0169683 0.00406630972,11.8382947 0.00494196442,11.6523285 L0.00494196442,4.38187512 C0.00233257682,4.33743829 0.000684869825,4.2929502 0,4.24844208 L0,4.11006708 C0.00988392885,3.54174117 0.140845986,2.29554248 1.03781253,1.30962057 C1.83676344,0.429950905 3.01706928,0.018944197 4.54413629,0.018944197 L6.11073901,-4.57223558e-16 L6.11073901,-4.57223558e-16 Z M4.91148898,6.70130376 L1.24043307,6.70130376 L1.24043307,11.1202436 L4.91148898,11.1202436 L4.91148898,6.70130376 Z M13.9338687,-4.57223558e-16 C13.9717571,-4.57223558e-16 14.0030562,0.0321227688 13.9997616,0.0691875019 L13.9981142,1.19348441 C13.9985559,1.21197581 13.9915749,1.22987413 13.97873,1.24318333 C13.9658851,1.25649253 13.9482458,1.26410431 13.9297504,1.26431923 L12.3680896,1.28491075 C11.21167,1.28491075 10.3460025,1.55424781 9.79497349,2.15552015 C9.00425918,3.01624562 9.07756499,4.25585503 9.08085963,4.30527467 L9.08415427,4.3341028 L9.08415427,5.46581265 L13.2724691,5.46581265 C13.4582939,5.46646645 13.6362357,5.54096929 13.7670926,5.6729077 C13.8979496,5.80484612 13.9709854,5.98339503 13.9701098,6.16921892 L13.9701098,11.6523285 C13.9709854,11.8381523 13.8979496,12.0167013 13.7670926,12.1486397 C13.6362357,12.2805781 13.4582939,12.3550809 13.2724691,12.3557347 L8.52571229,12.3557347 C8.33988748,12.3550809 8.16194573,12.2805781 8.03108877,12.1486397 C7.90023182,12.0167013 7.82719602,11.8381523 7.82807165,11.6523285 L7.82807165,4.38187512 C7.82546252,4.33743827 7.82381481,4.29295019 7.82312968,4.24844208 L7.82312968,4.11006708 C7.83218995,3.54174117 7.96397567,2.29554248 8.86094221,1.30962057 C9.65989313,0.429950905 10.8393753,0.018944197 12.3664423,0.018944197 L13.9338687,-4.57223558e-16 L13.9338687,-4.57223558e-16 Z M12.733795,6.70130376 L9.06273909,6.70130376 L9.06273909,11.1202436 L12.7346187,11.1202436 L12.7346187,6.70130376 L12.733795,6.70130376 Z" id="形状"></path>
        </g>
    </g>
</svg>