<?xml version="1.0" encoding="UTF-8"?>
<svg width="24px" height="24px" viewBox="0 0 24 24" version="1.1" xmlns="http://www.w3.org/2000/svg" xmlns:xlink="http://www.w3.org/1999/xlink">
    <title>主页</title>
    <g id="页面-1" stroke="none" stroke-width="1" fill="none" fill-rule="evenodd">
        <g id="个人主页" transform="translate(-488, -125)" fill="#2458C2">
            <g id="主页" transform="translate(488, 125)">
                <circle id="椭圆形备份" fill-opacity="0.09" cx="12" cy="12" r="12"></circle>
                <g id="编组" transform="translate(4, 5.4)" fill-rule="nonzero">
                    <path d="M8.00607589,2.58216609 C8.58908514,3.06317373 9.17109439,3.54218133 9.75310363,4.02118894 C11.0191237,5.0642055 12.2821438,6.10922209 13.5511639,7.14823859 C13.6701658,7.24724016 13.7151665,7.34824176 13.7141828,7.50224421 C13.7091664,8.99626793 13.7121665,10.4912917 13.7111665,11.9863154 C13.7111665,12.5033236 13.4741627,12.7413274 12.9621546,12.7413274 L9.26409586,12.7413274 L9.26409586,8.94026704 L6.73505571,8.94026704 L6.73505571,12.7283272 C6.65505444,12.7333273 6.59205344,12.7403274 6.52905244,12.7403274 L3.01699668,12.7403274 C2.5399891,12.7403274 2.29098515,12.4963235 2.29098515,12.024316 C2.28898512,10.5032919 2.2879851,8.98126769 2.29498521,7.46024354 C2.29598523,7.3692421 2.34298597,7.24824017 2.40998704,7.19223929 C4.22701589,5.68521536 6.05004483,4.18419153 7.87107374,2.68216768 C7.9120744,2.64916715 7.95507508,2.61916668 8.00607589,2.58216609 Z M7.11006166,0.379131112 C7.71807132,-0.126876922 8.28508032,-0.125876906 8.89208996,0.379131112 C9.58310093,0.956140274 10.2731119,1.53314943 10.9631228,2.1101586 C11.0181237,2.15615933 11.0741246,2.20016003 11.1741262,2.2801613 L11.1741262,0.967140448 C11.1741262,0.769137305 11.1691261,0.570134145 11.1771262,0.372131001 C11.1851264,0.14912746 11.291128,0.0411257457 11.5101315,0.0391257139 C12.1321414,0.0341256346 12.7541513,0.0341256346 13.3761612,0.0391257139 C13.620165,0.0411257457 13.7121665,0.159127619 13.7121665,0.45013224 C13.7131665,1.64715124 13.7211666,2.84517027 13.7051664,4.04218927 C13.7021663,4.30919351 13.7811676,4.47619616 13.9871709,4.63919875 C14.5931805,5.12020639 15.1821898,5.62221436 15.7771993,6.11722222 C16.0572037,6.35022592 16.0692039,6.48422804 15.8362002,6.76123244 L15.3901931,7.29324089 C15.1711897,7.55324502 15.0291874,7.56824526 14.7741833,7.35524187 C13.0681563,5.93121926 11.3611292,4.50719665 9.65510207,3.08317405 C9.10709337,2.62616679 8.55808465,2.16915953 8.00007579,1.70415215 C7.44106692,2.17015955 6.88705812,2.63116687 6.33504936,3.09217419 C4.63302233,4.51119672 2.93199533,5.93221928 1.23096832,7.35124181 C0.972964222,7.56724524 0.829961951,7.55424503 0.612958506,7.29724095 C0.467956204,7.12523822 0.324953933,6.95223548 0.179951631,6.78023274 C-0.0730523861,6.48022798 -0.0630522273,6.355226 0.233952488,6.10722206 L3.31300138,3.54118132 C4.57902148,2.48716458 5.84404156,1.43214783 7.11006166,0.379131112 Z" id="形状结合"></path>
                </g>
            </g>
        </g>
    </g>
</svg>