<?xml version="1.0" encoding="UTF-8"?>
<svg width="12px" height="12px" viewBox="0 0 12 12" version="1.1" xmlns="http://www.w3.org/2000/svg" xmlns:xlink="http://www.w3.org/1999/xlink">
    <title>icon/zxdt</title>
    <g id="icon/zxdt" stroke="none" stroke-width="1" fill="none" fill-rule="evenodd">
        <rect id="矩形" x="0" y="0" width="12" height="12"></rect>
        <g id="编组" fill="#2458C2" fill-rule="nonzero">
            <path d="M10.8000587,0 C11.462795,0 12,0.537322451 12,1.20002518 L12,9.60005035 C12,10.2627699 11.4627783,10.8000923 10.8000587,10.8000923 L7.51351782,10.8000923 L6.54011707,11.7723014 C6.23990936,12.072207 5.75314185,12.072207 5.45288379,11.7723014 L4.47948304,10.8000923 L1.20000839,10.8000923 C0.537305667,10.8000923 0,10.2627699 0,9.60005035 L0,1.20000839 C0,0.537305667 0.537288882,0 1.20000839,0 Z M10.5520005,0.879055032 L1.44806663,0.879055032 C1.13375994,0.879055032 0.879038248,1.13379351 0.879038248,1.44801628 L0.879038248,9.41396051 C0.879038248,9.72820007 1.13375994,9.98300569 1.44806663,9.98300569 L4.63376623,9.98300569 L5.61090993,10.9589745 C5.82445922,11.1722888 6.17065648,11.1722888 6.38420578,10.9589745 L7.36134947,9.98300569 L10.5520005,9.98300569 C10.8662401,9.98300569 11.1209953,9.72820007 11.1209953,9.41396051 L11.1209953,1.44801628 C11.1209953,1.13379351 10.8662401,0.879055032 10.5520005,0.879055032 Z M5.18371064,3.56816818 L6.85650505,6.50297296 L6.86822063,3.56899062 L7.69066152,3.56899062 L7.69066152,7.78107966 L6.80957556,7.78107966 L5.08824035,4.77327906 L5.0764912,7.78107966 L4.25405031,7.78107966 L4.25405031,3.56899062 L5.18371064,3.56816818 Z" id="形状结合"></path>
        </g>
    </g>
</svg>